<svg version="1.2" xmlns="http://www.w3.org/2000/svg" viewBox="0 0 148 128" width="148" height="128">
	<title>Vertical-Light</title>
	<style>
		.s0 { fill: #015fc9 } 
		.s1 { fill: #ece1da } 
		.s2 { fill: #3e0000 } 
		.s3 { fill: #000000 } 
		.s4 { fill: #ffffff } 
	</style>
	<g id="Page-1">
		<g id="Vertical-Light">
			<path id="Fill-71" fill-rule="evenodd" class="s0" d="m73.4 122.7c13.8-0.3 31.2 6.7 42.5-1.1 2.5-1.7 1.1-2.9 1-2.8-10.7 11.4-25.2 1.9-45.6 0.9-0.2 0 2.1 2.9 2.1 3z"/>
			<path id="Fill-75" fill-rule="evenodd" class="s1" d="m105.5 63c0 1.1-12 7.5-15.6 9.2-3.4 1.6-6.7-2.4-8.1 1.2-2.5 6.2 7.9 21.6 8.7 22.6-1.3-4.3-4-10.4-2-14 2-3.6 13.5-8.9 13.4-5.1 0 3.8-1 10.7-2.2 20.6 2.5-0.1 8.2-18.6 9.7-20.2 2.3-2.4 7.1 0.3 7.6 2.3 0.6 2.1-1.8 8-7.8 17.4 2.3-1.9 12.5-11.6 14-16.8 2.3-8-5.2-12.3-9.3-14.8-1-0.6-7-2.4-8.4-2.4z"/>
			<path id="Fill-77" fill-rule="evenodd" class="s0" d="m82.5 20.2c-1.3 0.1 4.2-1.8 5.6-3 5.2-4.7 5.9-1.9 11-3.7 2.1-0.8 10.4 1.2 12.3 2.2 0.7 0.4 0.8 1.5 2.8 2.4 2.6 1.2 4.4 2.8 0.1 3.5-4.5 0.6-12.9 3.7-16.7 0.6-2.5-2-0.7 0.7-4.5 0.5-1.5-0.1-24.6-3.1-10.6-2.5z"/>
			<path id="Fill-78" fill-rule="evenodd" class="s0" d="m37.2 45c-2.1-2.5-23 29.8-24.8 31.6-4 3.9 1.9 5.9 8.7 11.6 12 9.9 9.8 9 18.4 13 0.1-0.1 0.1-0.2-0.7-0.9-0.4-0.4 2.7-8.9 1.9-9.7-0.8-0.7-2.3 4.4-4.1 7.4-1.7-1.5-4.2-4-4.1-4.3 2.7-6.5 10-22.6 8.9-23.3-1.5-0.9-9.3 17.5-12 20.5-0.9 1-3.4-0.4-4.2-1.3-0.5-0.5-1.3-1.3-0.8-2.5 4.3-9.2 21.2-38.6 19.9-39.5-1.3-0.9-16.2 26.7-22.5 34.8-2.1 2.8-4.9-1.9-6.2-2.8 1.9-2.7 22.2-34 21.6-34.6z"/>
			<path id="Fill-79" fill-rule="evenodd" class="s2" d="m100.2 55.9c0.6 0.7 1.2 1.3 1.7 1.9-0.6-1.6-0.6-3.4-0.1-4.9-1.8 0.6-2.7 1.6-1.6 3z"/>
			<path id="Fill-80" fill-rule="evenodd" class="s2" d="m124.7 42.1q0.4 0 0.7 0.1c-0.7-0.7-1.6-1.1-2.6-1.1-2.1 0-3.8 1.7-3.8 3.8 0 2.1 1.7 3.8 3.8 3.8 2.1 0 3.8-1.7 3.8-3.8q-0.1-0.2-0.1-0.3c-0.2 0.7-0.9 1.2-1.8 1.2-1 0-1.9-0.8-1.9-1.8 0-1.1 0.9-1.9 1.9-1.9z"/>
			<path id="Fill-81" fill-rule="evenodd" class="s0" d="m75.3 120.3c-0.5-0.4-1.5-0.9-1.7-0.8-0.3 0.2 1.5 2.6 0.7 4.4-0.8 1.8-11.2-1.3-11.8-2.6-0.6-1.3 1.3-5.7 0.9-7.1-0.4-1.4-3.5-3-5.4-4-15.6-8.4-46.4-33.2-44.9-42.2 1.4-8.4 15.1-23.9 18.2-24.6 3.2-0.8 15.5 1.3 15.8 0.4 0.3-1-16.4-7.6-19.9-6.6-3.3 1-24.7 22.9-26.1 31-3.3 19 46.9 43.5 53.5 47.4 2 1.1-1.5 5.7 0 8.2 2 3.3 25.6 5.6 26.1 3.5 0.3-1.7-3.2-5.4-5.4-7z"/>
			<path id="Fill-82" fill-rule="evenodd" class="s0" d="m147.2 66.5c-0.7 1.5-2.7 3.3-5.3 4.9-3.7 25.3-19.6 36.5-19.1 37.4 0.5 0.9 9.4-0.3 10.1 2 1 3.9-13.4 13.5-13.8 13.3-0.4-0.1 5.6-6.7 4.3-8.1-1.5-1.5-13.9 2.2-14.7 0.7-0.8-1.5 20.8-17.5 22.3-40.4-1.7 0.5-3.3 0.8-4.6 0.9-4.1 11.6-17.6 25.3-21.8 27-3.7 1.5-12.4 0.8-15.3-1.1-2.8-1.8-11-18.3-12.9-25.1-7.3-1.7-16.4-5.9-17.6-10-1.6-5.4 12.9-20.9 14.5-19.6 0.8 0.6-4.8 11.1-3.3 13.8 1.3 2.4 9.5 7.9 17.8 7.4 6.4-0.4 13.5-5 17.5-8.3 0.7 0.2 1.5 0.4 2.4 0.4 1 0 1.8-0.2 2.5-0.5q-0.1 0.1-0.2 0.2c2.8 2.4 9.3 6.9 14.3 7.1 7.1 0.4 15-4.7 16-7.6 0.9-2.9-11.6-31.2-20.1-35-8.5-3.9-43.9 2.4-45.7 2-2.1-0.3-4.6-6-6-6.6-1.7-0.5-7.4 4.8-7.3 6.2 0.1 1.2 4 4.3 4.3 6.1 0.3 1.8-3.5 3.2-13.3 28.2-4.9 12.4-4 30.3 2.7 33.3 3.9 1.7 2.9-8.6 4.6-8.7 5.6-0.3 7.7 12.4-0.6 12.5-15.4 0.1-18.4-23.7-13.4-41 4-14 10.6-24.2 10.3-25.7-0.2-1.5-3.8-4.4-3.7-6.4 0-0.9 2.8-3.7 6-6.6-0.1-2.7 0.2-4.7 0.6-5.9 2.4-6.2 13.4-10.5 23.9-12.3-0.4-0.3-0.2-0.8 1.4-1 1.8-0.2 2.1-0.1 2.8 0.5 7.2-0.8 13.6-0.1 16.1 2.1 2.4 2.2 6 6.2 7.6 9.8 4.4 0.3 7.7 0.8 8.2 1.4 0.6 0.7 0.4 2.6-0.1 4.5 1.2-1.4 2.1-4 3.6-4.6 1.9-0.8 10.1 3 10.4 5 0.3 2.9-3.6 5.2-3.5 7.5 0 0.6 20.2 35.7 18.1 40.3zm-42-0.5c-5.1 5.2-15.8 11.8-21.4 12.8 1.6 8.5 8 21.1 11.1 22.9 0.6 0.4 1.7 0.6 2.9 0.8 3.1-12 6.3-24.8 7.4-36.5zm7.6-46.5c-2-6.9-21.1-5.8-29.1 0.5 3.7-0.3 8.5-0.6 13.3-0.7 6.2-0.1 11.9 0.2 15.8 0.2zm-30.7-5.9c1.2-0.7 4.9-1.1 9.4-1.4-2.7-5.8-4.7-7.9-7.1-9.8-9.7 0.8-20.2 5.1-21.2 12.6 2.3-1.7 4.3-3 5.1-3 2.2 0.1 5.7 5 7.7 7.2 1.6-2.2 3.9-4.4 6.1-5.6zm7-11.3c2.7 2.3 5.2 5.2 7.3 9.8 2.9 0 5.8 0 8.7 0.1-1.5-2.8-3.8-5.8-5.1-6.9-2.1-1.9-6.2-2.9-10.9-3zm33.1 73.8c-3.7-2-8.5-6.8-11.7-10.6-2.1 14.5-6.5 26.5-10.8 37.1 1.6 0.1 3.3-0.1 4.2-0.6 4.2-2.1 16.1-18.4 18.3-25.9z"/>
			<path id="Fill-83" fill-rule="evenodd" class="s0" d="m91 42.1q0.3 0 0.6 0.1c-0.7-0.7-1.6-1.1-2.6-1.1-2.1 0-3.8 1.7-3.8 3.8 0 2.1 1.7 3.8 3.8 3.8 2.1 0 3.8-1.7 3.8-3.8q0-0.2-0.1-0.3c-0.2 0.6-0.7 1.1-1.3 1.2q-0.2 0-0.4 0c-1.1 0-1.9-0.8-1.9-1.8 0-0.6 0.2-1.1 0.6-1.5 0.3-0.3 0.8-0.4 1.3-0.4z"/>
			<path id="Fill-84" fill-rule="evenodd" class="s0" d="m122.8 48.6c2.1 0 3.8-1.6 3.8-3.7 0-2.1-1.7-3.7-3.8-3.7-2 0-3.7 1.6-3.7 3.7 0 2.1 1.7 3.7 3.7 3.7z"/>
			<path id="Fill-85" fill-rule="evenodd" class="s3" d="m122.8 47.1c1.2 0 2.2-1 2.2-2.2 0-1.2-1-2.2-2.2-2.2-1.2 0-2.2 1-2.2 2.2 0 1.2 1 2.2 2.2 2.2z"/>
			<path id="Fill-86" fill-rule="evenodd" class="s4" d="m124.7 44.8c0.7 0 1.1-0.5 1.1-1.1 0-0.7-0.4-1.1-1.1-1.1-0.6 0-1.1 0.4-1.1 1.1 0 0.6 0.5 1.1 1.1 1.1z"/>
			<path id="Fill-87" fill-rule="evenodd" class="s0" d="m89.1 48.6c2 0 3.7-1.6 3.7-3.7 0-2-1.7-3.7-3.7-3.7-2.1 0-3.8 1.7-3.8 3.7 0 2.1 1.7 3.7 3.8 3.7z"/>
			<path id="Fill-88" fill-rule="evenodd" class="s3" d="m89.1 47.1c1.2 0 2.1-1 2.1-2.2 0-1.2-0.9-2.2-2.1-2.2-1.2 0-2.2 1-2.2 2.2 0 1.2 1 2.2 2.2 2.2z"/>
			<path id="Fill-89" fill-rule="evenodd" class="s4" d="m91 44.8c0.6 0 1.1-0.5 1.1-1.1 0-0.6-0.5-1.1-1.1-1.1-0.6 0-1.1 0.5-1.1 1.1 0 0.6 0.5 1.1 1.1 1.1z"/>
			<path id="Fill-90" fill-rule="evenodd" class="s3" d="m105.4 61.2c-0.3-0.1 1-1.9 1.3-3.1 0.4-1.7-1.1-2.1-2-1.8-1.9 0.3-0.6 2.4-0.2 3.2 0.3 0.7 0.1 1.1-1 0-0.5-0.6-1-1.1-1.4-1.6-0.6-0.6-1.2-1.2-1.9-2-4-4.8 17.2-5.3 14.9-0.7-0.8 1.7-1.9 2.9-3.1 4.3-1.7 2 0.3-1.5 0.3-2.4 0-0.9-0.6-0.8-1-0.4-0.9 0.9 1 4.9-3.2 5.2-1 0.1-2-0.1-2.7-0.7z"/>
			<path id="Fill-91" fill-rule="evenodd" class="s0" d="m33.6 43.2c7.7 0.5 13 2.2 20.7 4.8-2.5-2.8-6.2-4.3-13.1-7.3-2.9-1.2-5.9 0.8-7.6 2.5z"/>
			<path id="Fill-92" fill-rule="evenodd" class="s0" d="m45.3 90.7c-1.6 2.9-32.3-22.4-34.5-23.8-4.8-3 1.6-8.9 7.1-15.9 9.6-12.3 4.3-4.9 11.8-10.7 0.1 0.1 11.3 10 11 10.4-0.5 0.5-12.4-8.1-13.1-7.4-1.3 1.4-2.5 2.8-2.3 3 4.6 4.9 17.7 13.9 16.6 15.1-1.5 1.7-14.3-9.3-18.1-11.9-3.2-2.3-4.6 3.5-4.1 4.2 6.2 8.1 28.2 23.7 27.1 24.9-1.1 1.2-20.3-13.2-28.7-19.6-2.8-2.2-3.7 3-4.8 4.2 2.4 2.2 32.4 26.7 32 27.5z"/>
		</g>
	</g>
</svg>