<svg version="1.2" xmlns="http://www.w3.org/2000/svg" viewBox="0 0 289 91" width="289" height="91">
	<title>Main-logo</title>
	<defs>
		<clipPath clipPathUnits="userSpaceOnUse" id="cp1">
			<path d="m24.5 91.93l-15.53-28.47 47.32-25.63 15.53 28.47z"/>
		</clipPath>
		<clipPath clipPathUnits="userSpaceOnUse" id="cp2">
			<path d="m88.94 34.6l-16.26 28.07-46.65-26.84 16.26-28.06z"/>
		</clipPath>
	</defs>
	<style>
		.s0 { fill: #ed7358 } 
		.s1 { fill: #faeda8 } 
		.s2 { fill: #eeb858 } 
	</style>
	<path class="s0" d="m98.5 67q-1.6 0-3-0.3-1.3-0.3-2.4-0.9-1.1-0.6-2-1.5l1.6-2.2q1.4 1.3 2.8 2 1.5 0.6 3.1 0.6 0.9 0 1.8-0.3 0.9-0.2 1.4-0.6 0.5-0.5 0.5-1.2 0-0.4-0.2-0.7-0.3-0.4-0.8-0.5-0.5-0.3-1.1-0.4-0.5-0.1-1.2-0.2-0.6-0.1-1.1-0.1-1.4-0.2-2.5-0.6-1.1-0.3-1.9-0.9-0.8-0.5-1.2-1.2-0.4-0.8-0.4-1.8 0-1 0.5-1.9 0.5-0.8 1.4-1.4 0.9-0.5 2.1-0.8 1.1-0.3 2.5-0.3 1.5 0 2.7 0.3 1.2 0.2 2.1 0.8 1 0.5 1.6 1.3l-1.6 1.9q-0.6-0.6-1.4-1-0.8-0.5-1.6-0.7-0.9-0.2-1.8-0.2-1.1 0-1.9 0.2-0.7 0.2-1.2 0.6-0.5 0.4-0.5 1 0 0.5 0.3 0.8 0.4 0.4 0.9 0.6 0.6 0.3 1.3 0.4 0.7 0.2 1.6 0.3 1.3 0.2 2.4 0.4 1.2 0.3 2.1 0.7 0.9 0.5 1.4 1.2 0.5 0.7 0.5 1.8 0 1.5-0.9 2.6-0.8 1.1-2.4 1.7-1.5 0.5-3.5 0.5zm20.7 0q-2 0-3.6-0.5-1.6-0.6-2.8-1.7-1.1-1-1.8-2.4-0.6-1.4-0.6-3 0-1.6 0.6-3 0.7-1.4 1.8-2.4 1.2-1.1 2.8-1.7 1.6-0.5 3.6-0.5 1.9 0 3.5 0.5 1.6 0.6 2.8 1.7 1.1 1 1.8 2.4 0.7 1.4 0.7 3 0 1.6-0.7 3-0.7 1.4-1.8 2.4-1.2 1.1-2.8 1.7-1.6 0.5-3.5 0.5zm0-2.6q1.3 0 2.4-0.4 1.1-0.3 1.9-1 0.8-0.7 1.2-1.6 0.5-0.9 0.5-2 0-1.1-0.5-2-0.4-0.9-1.2-1.6-0.8-0.7-1.9-1-1.1-0.4-2.4-0.4-1.3 0-2.4 0.4-1.1 0.3-2 1-0.7 0.7-1.2 1.6-0.4 0.9-0.4 2 0 1.1 0.4 2 0.5 0.9 1.2 1.6 0.9 0.7 2 1 1.1 0.4 2.4 0.4zm15 2.4v-14.8h2.7v12.3h9.3v2.5zm25 0.2q-2.2 0-3.8-0.9-1.7-0.9-2.6-2.5-0.9-1.6-0.9-3.6v-8h2.8v7.9q0 1.3 0.6 2.3 0.6 1 1.6 1.6 1 0.6 2.3 0.6 1.3 0 2.4-0.6 1-0.6 1.6-1.6 0.6-1 0.6-2.3v-7.9h2.7v8q0 2-0.9 3.6-0.9 1.6-2.6 2.5-1.6 0.9-3.8 0.9zm18.2-0.2v-12.2h-5.4v-2.6h13.8v2.6h-5.6v12.2zm14.1 0v-2.5h3.7v-9.7h-3.7v-2.6h10.1v2.6h-3.7v9.7h3.7v2.5zm24.8 0.2q-1.9 0-3.5-0.5-1.6-0.6-2.8-1.7-1.2-1-1.8-2.4-0.7-1.4-0.7-3 0-1.6 0.7-3 0.6-1.4 1.8-2.4 1.2-1.1 2.8-1.7 1.6-0.5 3.5-0.5 1.9 0 3.5 0.5 1.6 0.6 2.8 1.7 1.2 1 1.9 2.4 0.6 1.4 0.6 3 0 1.6-0.6 3-0.7 1.4-1.9 2.4-1.2 1.1-2.8 1.7-1.6 0.5-3.5 0.5zm0-2.6q1.3 0 2.4-0.4 1.1-0.3 1.9-1 0.8-0.7 1.3-1.6 0.4-0.9 0.4-2 0-1.1-0.4-2-0.5-0.9-1.3-1.6-0.8-0.7-1.9-1-1.1-0.4-2.4-0.4-1.3 0-2.4 0.4-1.1 0.3-1.9 1-0.8 0.7-1.2 1.6-0.5 0.9-0.5 2 0 1.1 0.5 2 0.4 0.9 1.2 1.6 0.8 0.7 1.9 1 1.1 0.4 2.4 0.4zm15 2.4v-14.8h2.7l11 11.6-0.3 0.1q-0.1-0.7-0.2-1.4 0-0.7-0.1-1.4 0-0.8-0.1-1.5 0-0.8 0-1.5 0-0.7 0-1.4v-4.5h2.7v14.8h-2.7l-11-11.4 0.3-0.1q0.1 0.5 0.1 1.1 0.1 0.5 0.2 1.1 0 0.6 0.1 1.2 0 0.6 0 1.2 0.1 0.6 0.1 1.2v5.7z"/>
	<path class="s1" d="m90.3 37.9v-17.3h4v17.3zm16.3 0.3q-2 0-4-0.5-1.9-0.6-3-1.5l1.3-3q1.1 0.8 2.7 1.3 1.5 0.5 3.1 0.5 1.2 0 1.9-0.2 0.7-0.3 1.1-0.7 0.3-0.4 0.3-1 0-0.6-0.5-1-0.6-0.5-1.5-0.7-0.9-0.3-2-0.5-1-0.2-2.1-0.6-1.1-0.3-2-0.9-0.9-0.5-1.4-1.4-0.6-0.9-0.6-2.3 0-1.5 0.8-2.7 0.8-1.2 2.4-1.9 1.7-0.8 4.1-0.8 1.7 0 3.3 0.4 1.5 0.4 2.8 1.2l-1.3 3q-1.2-0.7-2.4-1-1.2-0.4-2.4-0.4-1.2 0-1.9 0.3-0.7 0.3-1.1 0.7-0.3 0.4-0.3 1 0 0.7 0.6 1.1 0.5 0.4 1.4 0.6 0.9 0.3 2 0.5 1 0.3 2.1 0.6 1.1 0.3 2 0.9 0.9 0.5 1.4 1.4 0.6 0.9 0.6 2.2 0 1.5-0.8 2.7-0.8 1.2-2.5 2-1.6 0.7-4.1 0.7zm24.5-17.6h4.1v17.3h-4.1zm-7.9 17.3h-4v-17.3h4zm8.2-7.1h-8.4v-3.4h8.4zm8.1 7.1l7.7-17.3h4l7.7 17.3h-4.2l-6.3-15.2h1.6l-6.4 15.2zm3.8-3.7l1.1-3h8.9l1.1 3zm19.9 3.7v-17.3h3.3l10.3 12.5h-1.6v-12.5h3.9v17.3h-3.3l-10.2-12.4h1.6v12.4zm21.6-10.1l1.6-5.9 0.5 2.2q-1 0-1.7-0.6-0.7-0.6-0.7-1.7 0-1.1 0.7-1.7 0.7-0.7 1.7-0.7 1.1 0 1.7 0.7 0.7 0.6 0.7 1.7 0 0.3 0 0.6-0.1 0.3-0.2 0.7-0.1 0.4-0.4 1.1l-1.5 3.6zm15.9 10.4q-2.1 0-4-0.5-1.9-0.6-3.1-1.5l1.4-3q1.1 0.8 2.6 1.3 1.5 0.5 3.1 0.5 1.2 0 1.9-0.2 0.8-0.3 1.1-0.7 0.4-0.4 0.4-0.9 0-0.7-0.6-1.1-0.5-0.4-1.4-0.7-0.9-0.3-2-0.5-1.1-0.2-2.2-0.6-1-0.3-1.9-0.9-0.9-0.5-1.5-1.4-0.5-0.9-0.5-2.3 0-1.5 0.8-2.7 0.8-1.2 2.4-1.9 1.6-0.8 4.1-0.8 1.6 0 3.2 0.4 1.6 0.4 2.8 1.2l-1.2 3q-1.3-0.7-2.5-1-1.2-0.4-2.3-0.4-1.2 0-2 0.3-0.7 0.3-1 0.7-0.3 0.5-0.3 1 0 0.7 0.5 1.1 0.5 0.4 1.4 0.7 0.9 0.2 2 0.4 1.1 0.3 2.2 0.6 1 0.3 1.9 0.9 0.9 0.5 1.5 1.4 0.5 0.9 0.5 2.3 0 1.4-0.8 2.6-0.8 1.2-2.4 2-1.6 0.7-4.1 0.7zm26.2-0.3l-5.6-17.3h4.1l5 15.4h-2.1l5.1-15.4h3.8l4.9 15.4h-2l5.1-15.4h3.8l-5.7 17.3h-4.3l-4.4-13.4h1.2l-4.5 13.4zm30.8-3.2h9.4v3.2h-13.4v-17.3h13.1v3.2h-9.1zm-0.3-7.1h8.3v3.1h-8.3zm15.4 10.4v-17.3h8.5q3.2 0 4.9 1.2 1.6 1.2 1.6 3.3 0 1.3-0.6 2.3-0.7 1-1.9 1.6-1.1 0.5-2.6 0.5l0.4-1q1.7 0 2.9 0.5 1.3 0.6 2 1.6 0.7 1 0.7 2.6 0 2.2-1.8 3.4-1.7 1.3-5.1 1.3zm4-3h4.6q1.6 0 2.4-0.5 0.8-0.6 0.8-1.7 0-1.1-0.8-1.6-0.8-0.5-2.4-0.5h-4.9v-2.9h4.3q1.4 0 2.2-0.5 0.8-0.5 0.8-1.6 0-1-0.8-1.5-0.8-0.5-2.2-0.5h-4z"/>
	<path fill-rule="evenodd" class="s1" d="m80.2 22v46.6h-1.8v-46.6z"/>
	<path class="s1" d="m40.9 2v-1-1l39.3 22-1.7 1.1z"/>
	<path class="s1" d="m40.8 88.7v2l39.4-22.1-1.8-1z"/>
	<g id="Clip-Path" clip-path="url(#cp1)">
		<g>
			<path class="s2" d="m40.6 46.4l31.1 19.9-31 16.8-31.2-19 31.2 0.8 11.7-6.4c0.8-0.4 1-1.5 0.4-2.2l-2.2-2.3-10.3 5.6-11.3-6.9z"/>
		</g>
	</g>
	<g id="Clip-Path" clip-path="url(#cp2)">
		<g>
			<path class="s0" d="m41.6 44.7l0.8-36.8 30.5 17.5v36.5l-15.6-27-11.5-6.6c-0.8-0.4-1.9 0-2.1 0.9l-0.8 3 10.1 5.9v13.2z"/>
		</g>
	</g>
	<path class="s1" d="m39.2 44.4l-32.5 17.8v-35.2l31.8-18.3-15.7 27v13.3c0 0.9 0.9 1.6 1.8 1.3l3.1-0.8v-11.6l11.5-6.6z"/>
	<path fill-rule="evenodd" class="s1" d="m1.8 22.9v45h-1.8v-45z"/>
	<path class="s1" d="m40.9 2.1v-2.1l-40.9 22.9 1.8 0.9z"/>
	<path class="s1" d="m40.8 88.7v2l-40.8-22.8 1.8-1.1z"/>
</svg>